<svg width="20" height="14" viewBox="0 0 20 14" fill="none" xmlns="http://www.w3.org/2000/svg">
<path fill-rule="evenodd" clip-rule="evenodd" d="M10 10C9.57836 10 9.17502 9.8669 8.89502 9.63319L5.38419 6.72012C4.96419 6.37099 4.88002 5.87557 5.16836 5.45672C5.42252 5.08702 5.92836 4.85731 6.48919 4.85731H13.5109C14.0717 4.85731 14.5775 5.08702 14.8317 5.45672C15.12 5.87557 15.0359 6.37099 14.6167 6.71955L11.105 9.63319C10.825 9.8669 10.4217 10 10 10Z" fill="#1F3456"/>
<mask id="mask0" style="mask-type:alpha" maskUnits="userSpaceOnUse" x="4" y="4" width="12" height="6">
<path fill-rule="evenodd" clip-rule="evenodd" d="M10 10C9.57836 10 9.17502 9.8669 8.89502 9.63319L5.38419 6.72012C4.96419 6.37099 4.88002 5.87557 5.16836 5.45672C5.42252 5.08702 5.92836 4.85731 6.48919 4.85731H13.5109C14.0717 4.85731 14.5775 5.08702 14.8317 5.45672C15.12 5.87557 15.0359 6.37099 14.6167 6.71955L11.105 9.63319C10.825 9.8669 10.4217 10 10 10Z" fill="white"/>
</mask>
<g mask="url(#mask0)">
<rect y="0.286028" width="20" height="13.7139" fill="#1F3456"/>
</g>
</svg>
