<svg width="20" height="14" viewBox="0 0 20 14" fill="none" xmlns="http://www.w3.org/2000/svg">
<path fill-rule="evenodd" clip-rule="evenodd" d="M10 3.9999C9.57836 3.9999 9.17502 4.13304 8.89502 4.36674L5.38419 7.27981C4.96419 7.62895 4.88002 8.12436 5.16836 8.54321C5.42252 8.91291 5.92836 9.14262 6.48919 9.14262H13.5109C14.0717 9.14262 14.5775 8.91291 14.8317 8.54321C15.12 8.12436 15.0359 7.62895 14.6167 7.28038L11.105 4.36674C10.825 4.13304 10.4217 3.9999 10 3.9999Z" fill="#1F3456"/>
<mask id="mask0" style="mask-type:alpha" maskUnits="userSpaceOnUse" x="4" y="3" width="12" height="7">
<path fill-rule="evenodd" clip-rule="evenodd" d="M10 3.9999C9.57836 3.9999 9.17502 4.13304 8.89502 4.36674L5.38419 7.27981C4.96419 7.62895 4.88002 8.12436 5.16836 8.54321C5.42252 8.91291 5.92836 9.14262 6.48919 9.14262H13.5109C14.0717 9.14262 14.5775 8.91291 14.8317 8.54321C15.12 8.12436 15.0359 7.62895 14.6167 7.28038L11.105 4.36674C10.825 4.13304 10.4217 3.9999 10 3.9999Z" fill="white"/>
</mask>
<g mask="url(#mask0)">
<rect width="20" height="13.7139" transform="matrix(1 0 0 -1 0 13.7139)" fill="#1F3456"/>
</g>
</svg>
