<svg width="21" height="20" viewBox="0 0 21 20" fill="none" xmlns="http://www.w3.org/2000/svg">
<path d="M10.5001 15.8333C10.6649 15.8333 10.826 15.7845 10.9631 15.6929C11.1001 15.6013 11.2069 15.4712 11.27 15.3189C11.3331 15.1666 11.3496 14.9991 11.3174 14.8374C11.2852 14.6758 11.2059 14.5273 11.0893 14.4107C10.9728 14.2942 10.8243 14.2148 10.6627 14.1827C10.501 14.1505 10.3335 14.167 10.1812 14.2301C10.0289 14.2932 9.89876 14.4 9.80719 14.537C9.71562 14.6741 9.66675 14.8352 9.66675 15C9.66675 15.221 9.75455 15.433 9.91083 15.5893C10.0671 15.7455 10.2791 15.8333 10.5001 15.8333ZM14.6667 15.8333C14.8316 15.8333 14.9927 15.7845 15.1297 15.6929C15.2668 15.6013 15.3736 15.4712 15.4366 15.3189C15.4997 15.1666 15.5162 14.9991 15.4841 14.8374C15.4519 14.6758 15.3725 14.5273 15.256 14.4107C15.1395 14.2942 14.991 14.2148 14.8293 14.1827C14.6677 14.1505 14.5001 14.167 14.3478 14.2301C14.1956 14.2932 14.0654 14.4 13.9739 14.537C13.8823 14.6741 13.8334 14.8352 13.8334 15C13.8334 15.221 13.9212 15.433 14.0775 15.5893C14.2338 15.7455 14.4457 15.8333 14.6667 15.8333ZM14.6667 12.5C14.8316 12.5 14.9927 12.4511 15.1297 12.3596C15.2668 12.268 15.3736 12.1378 15.4366 11.9856C15.4997 11.8333 15.5162 11.6657 15.4841 11.5041C15.4519 11.3424 15.3725 11.194 15.256 11.0774C15.1395 10.9609 14.991 10.8815 14.8293 10.8493C14.6677 10.8172 14.5001 10.8337 14.3478 10.8968C14.1956 10.9598 14.0654 11.0666 13.9739 11.2037C13.8823 11.3407 13.8334 11.5018 13.8334 11.6667C13.8334 11.8877 13.9212 12.0996 14.0775 12.2559C14.2338 12.4122 14.4457 12.5 14.6667 12.5ZM10.5001 12.5C10.6649 12.5 10.826 12.4511 10.9631 12.3596C11.1001 12.268 11.2069 12.1378 11.27 11.9856C11.3331 11.8333 11.3496 11.6657 11.3174 11.5041C11.2852 11.3424 11.2059 11.194 11.0893 11.0774C10.9728 10.9609 10.8243 10.8815 10.6627 10.8493C10.501 10.8172 10.3335 10.8337 10.1812 10.8968C10.0289 10.9598 9.89876 11.0666 9.80719 11.2037C9.71562 11.3407 9.66675 11.5018 9.66675 11.6667C9.66675 11.8877 9.75455 12.0996 9.91083 12.2559C10.0671 12.4122 10.2791 12.5 10.5001 12.5ZM16.3334 2.5H15.5001V1.66667C15.5001 1.44565 15.4123 1.23369 15.256 1.07741C15.0997 0.921131 14.8878 0.833334 14.6667 0.833334C14.4457 0.833334 14.2338 0.921131 14.0775 1.07741C13.9212 1.23369 13.8334 1.44565 13.8334 1.66667V2.5H7.16675V1.66667C7.16675 1.44565 7.07895 1.23369 6.92267 1.07741C6.76639 0.921131 6.55443 0.833334 6.33342 0.833334C6.1124 0.833334 5.90044 0.921131 5.74416 1.07741C5.58788 1.23369 5.50008 1.44565 5.50008 1.66667V2.5H4.66675C4.00371 2.5 3.36782 2.76339 2.89898 3.23223C2.43014 3.70107 2.16675 4.33696 2.16675 5V16.6667C2.16675 17.3297 2.43014 17.9656 2.89898 18.4344C3.36782 18.9033 4.00371 19.1667 4.66675 19.1667H16.3334C16.9965 19.1667 17.6323 18.9033 18.1012 18.4344C18.57 17.9656 18.8334 17.3297 18.8334 16.6667V5C18.8334 4.33696 18.57 3.70107 18.1012 3.23223C17.6323 2.76339 16.9965 2.5 16.3334 2.5ZM17.1667 16.6667C17.1667 16.8877 17.079 17.0996 16.9227 17.2559C16.7664 17.4122 16.5544 17.5 16.3334 17.5H4.66675C4.44573 17.5 4.23377 17.4122 4.07749 17.2559C3.92121 17.0996 3.83341 16.8877 3.83341 16.6667V9.16667H17.1667V16.6667ZM17.1667 7.5H3.83341V5C3.83341 4.77899 3.92121 4.56703 4.07749 4.41074C4.23377 4.25446 4.44573 4.16667 4.66675 4.16667H5.50008V5C5.50008 5.22101 5.58788 5.43298 5.74416 5.58926C5.90044 5.74554 6.1124 5.83333 6.33342 5.83333C6.55443 5.83333 6.76639 5.74554 6.92267 5.58926C7.07895 5.43298 7.16675 5.22101 7.16675 5V4.16667H13.8334V5C13.8334 5.22101 13.9212 5.43298 14.0775 5.58926C14.2338 5.74554 14.4457 5.83333 14.6667 5.83333C14.8878 5.83333 15.0997 5.74554 15.256 5.58926C15.4123 5.43298 15.5001 5.22101 15.5001 5V4.16667H16.3334C16.5544 4.16667 16.7664 4.25446 16.9227 4.41074C17.079 4.56703 17.1667 4.77899 17.1667 5V7.5ZM6.33342 12.5C6.49823 12.5 6.65935 12.4511 6.79639 12.3596C6.93343 12.268 7.04024 12.1378 7.10331 11.9856C7.16639 11.8333 7.18289 11.6657 7.15074 11.5041C7.11858 11.3424 7.03921 11.194 6.92267 11.0774C6.80613 10.9609 6.65764 10.8815 6.49599 10.8493C6.33434 10.8172 6.16678 10.8337 6.01451 10.8968C5.86224 10.9598 5.73209 11.0666 5.64052 11.2037C5.54896 11.3407 5.50008 11.5018 5.50008 11.6667C5.50008 11.8877 5.58788 12.0996 5.74416 12.2559C5.90044 12.4122 6.1124 12.5 6.33342 12.5ZM6.33342 15.8333C6.49823 15.8333 6.65935 15.7845 6.79639 15.6929C6.93343 15.6013 7.04024 15.4712 7.10331 15.3189C7.16639 15.1666 7.18289 14.9991 7.15074 14.8374C7.11858 14.6758 7.03921 14.5273 6.92267 14.4107C6.80613 14.2942 6.65764 14.2148 6.49599 14.1827C6.33434 14.1505 6.16678 14.167 6.01451 14.2301C5.86224 14.2932 5.73209 14.4 5.64052 14.537C5.54896 14.6741 5.50008 14.8352 5.50008 15C5.50008 15.221 5.58788 15.433 5.74416 15.5893C5.90044 15.7455 6.1124 15.8333 6.33342 15.8333Z" fill="#969696"/>
</svg>
