<svg width="16" height="16" viewBox="0 0 16 16" fill="none" xmlns="http://www.w3.org/2000/svg">
<path d="M9.33331 5.99998H6.66665C6.48984 5.99998 6.32027 6.07022 6.19524 6.19524C6.07022 6.32027 5.99998 6.48984 5.99998 6.66665V9.33331C5.99998 9.51012 6.07022 9.67969 6.19524 9.80472C6.32027 9.92974 6.48984 9.99998 6.66665 9.99998H9.33331C9.51012 9.99998 9.67969 9.92974 9.80472 9.80472C9.92974 9.67969 9.99998 9.51012 9.99998 9.33331V6.66665C9.99998 6.48984 9.92974 6.32027 9.80472 6.19524C9.67969 6.07022 9.51012 5.99998 9.33331 5.99998ZM8.66665 8.66665H7.33331V7.33331H8.66665V8.66665ZM14 8.66665C14.1768 8.66665 14.3464 8.59641 14.4714 8.47138C14.5964 8.34636 14.6666 8.17679 14.6666 7.99998C14.6666 7.82317 14.5964 7.6536 14.4714 7.52858C14.3464 7.40355 14.1768 7.33331 14 7.33331H12.6666V5.99998H14C14.1768 5.99998 14.3464 5.92974 14.4714 5.80472C14.5964 5.67969 14.6666 5.51012 14.6666 5.33331C14.6666 5.1565 14.5964 4.98693 14.4714 4.86191C14.3464 4.73688 14.1768 4.66665 14 4.66665H12.5466C12.4471 4.38705 12.2866 4.13311 12.0767 3.92325C11.8669 3.71338 11.6129 3.55286 11.3333 3.45331V1.99998C11.3333 1.82317 11.2631 1.6536 11.1381 1.52858C11.013 1.40355 10.8435 1.33331 10.6666 1.33331C10.4898 1.33331 10.3203 1.40355 10.1952 1.52858C10.0702 1.6536 9.99998 1.82317 9.99998 1.99998V3.33331H8.66665V1.99998C8.66665 1.82317 8.59641 1.6536 8.47138 1.52858C8.34636 1.40355 8.17679 1.33331 7.99998 1.33331C7.82317 1.33331 7.6536 1.40355 7.52858 1.52858C7.40355 1.6536 7.33331 1.82317 7.33331 1.99998V3.33331H5.99998V1.99998C5.99998 1.82317 5.92974 1.6536 5.80472 1.52858C5.67969 1.40355 5.51012 1.33331 5.33331 1.33331C5.1565 1.33331 4.98693 1.40355 4.86191 1.52858C4.73688 1.6536 4.66665 1.82317 4.66665 1.99998V3.45331C4.38705 3.55286 4.13311 3.71338 3.92325 3.92325C3.71338 4.13311 3.55286 4.38705 3.45331 4.66665H1.99998C1.82317 4.66665 1.6536 4.73688 1.52858 4.86191C1.40355 4.98693 1.33331 5.1565 1.33331 5.33331C1.33331 5.51012 1.40355 5.67969 1.52858 5.80472C1.6536 5.92974 1.82317 5.99998 1.99998 5.99998H3.33331V7.33331H1.99998C1.82317 7.33331 1.6536 7.40355 1.52858 7.52858C1.40355 7.6536 1.33331 7.82317 1.33331 7.99998C1.33331 8.17679 1.40355 8.34636 1.52858 8.47138C1.6536 8.59641 1.82317 8.66665 1.99998 8.66665H3.33331V9.99998H1.99998C1.82317 9.99998 1.6536 10.0702 1.52858 10.1952C1.40355 10.3203 1.33331 10.4898 1.33331 10.6666C1.33331 10.8435 1.40355 11.013 1.52858 11.1381C1.6536 11.2631 1.82317 11.3333 1.99998 11.3333H3.45331C3.55286 11.6129 3.71338 11.8669 3.92325 12.0767C4.13311 12.2866 4.38705 12.4471 4.66665 12.5466V14C4.66665 14.1768 4.73688 14.3464 4.86191 14.4714C4.98693 14.5964 5.1565 14.6666 5.33331 14.6666C5.51012 14.6666 5.67969 14.5964 5.80472 14.4714C5.92974 14.3464 5.99998 14.1768 5.99998 14V12.6666H7.33331V14C7.33331 14.1768 7.40355 14.3464 7.52858 14.4714C7.6536 14.5964 7.82317 14.6666 7.99998 14.6666C8.17679 14.6666 8.34636 14.5964 8.47138 14.4714C8.59641 14.3464 8.66665 14.1768 8.66665 14V12.6666H9.99998V14C9.99998 14.1768 10.0702 14.3464 10.1952 14.4714C10.3203 14.5964 10.4898 14.6666 10.6666 14.6666C10.8435 14.6666 11.013 14.5964 11.1381 14.4714C11.2631 14.3464 11.3333 14.1768 11.3333 14V12.5466C11.6129 12.4471 11.8669 12.2866 12.0767 12.0767C12.2866 11.8669 12.4471 11.6129 12.5466 11.3333H14C14.1768 11.3333 14.3464 11.2631 14.4714 11.1381C14.5964 11.013 14.6666 10.8435 14.6666 10.6666C14.6666 10.4898 14.5964 10.3203 14.4714 10.1952C14.3464 10.0702 14.1768 9.99998 14 9.99998H12.6666V8.66665H14ZM11.3333 10.6666C11.3333 10.8435 11.2631 11.013 11.1381 11.1381C11.013 11.2631 10.8435 11.3333 10.6666 11.3333H5.33331C5.1565 11.3333 4.98693 11.2631 4.86191 11.1381C4.73688 11.013 4.66665 10.8435 4.66665 10.6666V5.33331C4.66665 5.1565 4.73688 4.98693 4.86191 4.86191C4.98693 4.73688 5.1565 4.66665 5.33331 4.66665H10.6666C10.8435 4.66665 11.013 4.73688 11.1381 4.86191C11.2631 4.98693 11.3333 5.1565 11.3333 5.33331V10.6666Z" fill="#717171"/>
</svg>
