<svg width="16" height="16" viewBox="0 0 16 16" fill="none" xmlns="http://www.w3.org/2000/svg">
<path d="M4.66666 5.33335H14C14.4 5.33335 14.6667 5.06668 14.6667 4.66668C14.6667 4.26668 14.4 4.00002 14 4.00002H4.66666C4.26666 4.00002 3.99999 4.26668 3.99999 4.66668C3.99999 5.06668 4.26666 5.33335 4.66666 5.33335ZM14 7.33335H4.66666C4.26666 7.33335 3.99999 7.60002 3.99999 8.00002C3.99999 8.40002 4.26666 8.66668 4.66666 8.66668H14C14.4 8.66668 14.6667 8.40002 14.6667 8.00002C14.6667 7.60002 14.4 7.33335 14 7.33335ZM14 10.6667H4.66666C4.26666 10.6667 3.99999 10.9333 3.99999 11.3333C3.99999 11.7333 4.26666 12 4.66666 12H14C14.4 12 14.6667 11.7333 14.6667 11.3333C14.6667 10.9333 14.4 10.6667 14 10.6667ZM2.46666 4.20002C2.4 4.13335 2.33333 4.06668 2.26666 4.06668C2 3.93335 1.73333 4.00002 1.53333 4.20002C1.46666 4.26668 1.4 4.33335 1.4 4.40002C1.33333 4.60002 1.33333 4.73335 1.4 4.93335C1.46666 5.00002 1.46666 5.06668 1.53333 5.13335C1.6 5.20002 1.66666 5.26668 1.73333 5.26668C1.8 5.33335 1.93333 5.33335 2 5.33335C2.2 5.33335 2.33333 5.26668 2.46666 5.13335C2.53333 5.06668 2.6 5.00002 2.6 4.93335C2.66666 4.73335 2.66666 4.60002 2.6 4.40002C2.6 4.33335 2.53333 4.26668 2.46666 4.20002ZM2.46666 7.53335C2.26666 7.33335 2 7.26668 1.73333 7.40002C1.66666 7.46668 1.6 7.46668 1.53333 7.53335C1.46666 7.60002 1.4 7.66668 1.4 7.73335C1.33333 7.86668 1.33333 8.06668 1.4 8.26668C1.46666 8.33335 1.46666 8.40002 1.53333 8.46668C1.6 8.53335 1.66666 8.60002 1.73333 8.60002C1.8 8.66668 1.93333 8.66668 2 8.66668C2.06666 8.66668 2.2 8.66668 2.26666 8.60002C2.33333 8.53335 2.4 8.53335 2.46666 8.46668C2.53333 8.40002 2.6 8.33335 2.6 8.26668C2.66666 8.13335 2.66666 7.93335 2.6 7.73335C2.6 7.66668 2.53333 7.60002 2.46666 7.53335ZM2.46666 10.8667C2.4 10.8 2.33333 10.7333 2.26666 10.7333C2.13333 10.6667 1.93333 10.6667 1.73333 10.7333C1.66666 10.7333 1.6 10.8 1.53333 10.8667C1.46666 10.9333 1.4 11 1.4 11.0667C1.26666 11.3333 1.33333 11.6 1.53333 11.8C1.6 11.8667 1.66666 11.9333 1.73333 11.9333C1.8 12 1.93333 12 2 12C2.06666 12 2.2 12 2.26666 11.9333C2.33333 11.8667 2.4 11.8667 2.46666 11.8C2.66666 11.6 2.73333 11.3333 2.6 11.0667C2.6 11 2.53333 10.9333 2.46666 10.8667Z" fill="#717171"/>
</svg>
