<svg width="164" height="44" viewBox="0 0 164 44" fill="none" xmlns="http://www.w3.org/2000/svg">
<rect width="44" height="44" fill="#FEFEFE"/>
<path d="M22.0002 11.6178C16.2744 11.6178 11.6161 16.2761 11.6161 22.0019C11.6161 27.7277 16.2744 32.386 22.0002 32.386C27.726 32.386 32.3843 27.7277 32.3843 22.0019C32.3843 16.2761 27.726 11.6178 22.0002 11.6178ZM22.0002 27.6594C19.5125 27.6594 17.4885 25.6355 17.4885 23.1477C17.4885 22.1164 18.1168 20.7413 19.4093 18.944C20.2924 17.7161 21.164 16.742 21.2007 16.7012L22.0002 15.8103L22.7997 16.7012C22.8364 16.742 23.708 17.7161 24.5911 18.944C25.8836 20.7414 26.5119 22.1164 26.5119 23.1477C26.5119 25.6355 24.488 27.6594 22.0002 27.6594Z" fill="#15519C"/>
<path d="M37.6378 18.4065C37.2328 16.6369 36.5344 14.9794 35.5977 13.4866L36.7287 12.2161C37.1028 11.7959 37.0842 11.1569 36.6864 10.7591L33.2422 7.31488C32.8444 6.91706 32.2054 6.89851 31.7851 7.27259L30.5147 8.40354C29.0219 7.46682 27.3643 6.76851 25.5948 6.36345L25.4963 4.66764C25.4637 4.10599 24.9987 3.66724 24.4361 3.66724H19.5653C19.0027 3.66724 18.5377 4.10599 18.5051 4.66764L18.4066 6.36345C16.637 6.76851 14.9795 7.46682 13.4867 8.40354L12.2162 7.27259C11.796 6.89851 11.157 6.91706 10.7592 7.31488L7.315 10.7591C6.91718 11.1569 6.89864 11.7959 7.27271 12.2161L8.40366 13.4866C7.46694 14.9794 6.76863 16.6369 6.36358 18.4065L4.66776 18.505C4.10611 18.5376 3.66736 19.0026 3.66736 19.5652V24.436C3.66736 24.9986 4.10611 25.4636 4.66776 25.4962L6.36358 25.5947C6.76863 27.3643 7.46694 29.0217 8.40366 30.5145L7.27271 31.785C6.89864 32.2052 6.91718 32.8443 7.315 33.2421L10.7592 36.6863C11.157 37.0841 11.796 37.1026 12.2162 36.7286L13.4867 35.5976C14.9795 36.5343 16.637 37.2326 18.4066 37.6377L18.5051 39.3335C18.5377 39.8952 19.0027 40.3339 19.5653 40.3339H24.4361C24.9987 40.3339 25.4637 39.8951 25.4963 39.3335L25.5948 37.6377C27.3644 37.2326 29.0219 36.5343 30.5147 35.5976L31.7851 36.7286C32.2054 37.1026 32.8444 37.0841 33.2422 36.6863L36.6864 33.2421C37.0842 32.8443 37.1028 32.2052 36.7287 31.785L35.5977 30.5145C36.5344 29.0217 37.2328 27.3642 37.6378 25.5947L39.3336 25.4962C39.8953 25.4636 40.334 24.9986 40.334 24.436V19.5652C40.334 19.0026 39.8953 18.5376 39.3336 18.505L37.6378 18.4065ZM22.0007 34.5331C15.0902 34.5331 9.46814 28.911 9.46814 22.0006C9.46814 15.0901 15.0902 9.46802 22.0007 9.46802C28.9111 9.46802 34.5332 15.0901 34.5332 22.0006C34.5332 28.911 28.9111 34.5331 22.0007 34.5331Z" fill="#50C4F3"/>
<path d="M48.8562 16.5881H54.1999V31H57.8477V16.5881H63.1914V13.5455H48.8562V16.5881ZM69.5515 31.2557C72.7901 31.2557 74.9719 29.679 75.4833 27.25L72.1254 27.0284C71.7589 28.0256 70.8214 28.5455 69.6112 28.5455C67.7958 28.5455 66.6452 27.3438 66.6452 25.392V25.3835H75.56V24.3864C75.56 19.9375 72.8668 17.7386 69.4066 17.7386C65.5543 17.7386 63.0572 20.4744 63.0572 24.5142C63.0572 28.6648 65.5202 31.2557 69.5515 31.2557ZM66.6452 23.1335C66.7219 21.642 67.8555 20.4489 69.4663 20.4489C71.043 20.4489 72.1339 21.5739 72.1424 23.1335H66.6452ZM83.8441 31.2557C87.3299 31.2557 89.5202 29.2102 89.6907 26.2017H86.2646C86.0515 27.5994 85.131 28.3835 83.8867 28.3835C82.1907 28.3835 81.0913 26.9602 81.0913 24.4545C81.0913 21.983 82.1992 20.5682 83.8867 20.5682C85.2163 20.5682 86.0685 21.446 86.2646 22.75H89.6907C89.5373 19.7244 87.2447 17.7386 83.8271 17.7386C79.8555 17.7386 77.4009 20.4915 77.4009 24.5057C77.4009 28.4858 79.8129 31.2557 83.8441 31.2557ZM95.646 23.4318C95.6545 21.7443 96.6857 20.7557 98.1687 20.7557C99.6431 20.7557 100.512 21.7017 100.504 23.3125V31H104.135V22.6648C104.143 19.5966 102.336 17.7386 99.609 17.7386C97.6232 17.7386 96.2937 18.6761 95.6971 20.2188H95.5437V13.5455H92.0153V31H95.646V23.4318Z" fill="#1553A0"/>
<path d="M107.461 31H110.094V24.3949H113.674C113.733 24.3949 113.784 24.3949 113.844 24.3949L117.39 31H120.39L116.52 23.9347C118.659 23.142 119.725 21.3608 119.725 19.017C119.725 15.804 117.73 13.5455 113.682 13.5455H107.461V31ZM110.094 22.1278V15.804H113.401C116 15.804 117.074 17.0398 117.074 19.017C117.074 20.9858 116 22.1278 113.435 22.1278H110.094ZM128.075 31.2642C131.765 31.2642 134.177 28.5625 134.177 24.5142C134.177 20.4403 131.765 17.7386 128.075 17.7386C124.385 17.7386 121.973 20.4403 121.973 24.5142C121.973 28.5625 124.385 31.2642 128.075 31.2642ZM128.083 29.125C125.672 29.125 124.547 27.0199 124.547 24.5057C124.547 22 125.672 19.8693 128.083 19.8693C130.478 19.8693 131.603 22 131.603 24.5057C131.603 27.0199 130.478 29.125 128.083 29.125ZM140.831 31.2898C142.996 31.2898 144.215 30.1903 144.701 29.2102H144.803V31H147.292V22.3068C147.292 18.4972 144.292 17.7386 142.212 17.7386C139.843 17.7386 137.661 18.6932 136.809 21.0795L139.203 21.625C139.578 20.696 140.533 19.8011 142.246 19.8011C143.891 19.8011 144.735 20.6619 144.735 22.1449V22.2045C144.735 23.1335 143.78 23.1165 141.428 23.3892C138.948 23.679 136.408 24.3267 136.408 27.3011C136.408 29.875 138.343 31.2898 140.831 31.2898ZM141.385 29.2443C139.945 29.2443 138.905 28.5966 138.905 27.3352C138.905 25.9716 140.115 25.4858 141.59 25.2898C142.417 25.179 144.377 24.9574 144.743 24.5909V26.2784C144.743 27.8295 143.507 29.2443 141.385 29.2443ZM155.586 31.2557C157.973 31.2557 158.91 29.7983 159.37 28.9631H159.583V31H162.072V13.5455H159.524V20.0312H159.37C158.91 19.2216 158.041 17.7386 155.603 17.7386C152.441 17.7386 150.115 20.2358 150.115 24.4801C150.115 28.7159 152.407 31.2557 155.586 31.2557ZM156.149 29.0824C153.873 29.0824 152.689 27.0795 152.689 24.4545C152.689 21.8551 153.848 19.9034 156.149 19.9034C158.373 19.9034 159.566 21.7188 159.566 24.4545C159.566 27.2074 158.348 29.0824 156.149 29.0824Z" fill="black"/>
</svg>
