<svg width="16" height="16" viewBox="0 0 16 16" fill="none" xmlns="http://www.w3.org/2000/svg">
<path d="M10.6667 9.33331H5.33333C5.15652 9.33331 4.98695 9.40355 4.86193 9.52858C4.7369 9.6536 4.66667 9.82317 4.66667 9.99998C4.66667 10.1768 4.7369 10.3464 4.86193 10.4714C4.98695 10.5964 5.15652 10.6666 5.33333 10.6666H10.6667C10.8435 10.6666 11.013 10.5964 11.1381 10.4714C11.2631 10.3464 11.3333 10.1768 11.3333 9.99998C11.3333 9.82317 11.2631 9.6536 11.1381 9.52858C11.013 9.40355 10.8435 9.33331 10.6667 9.33331ZM10.6667 6.66665H6.66667C6.48986 6.66665 6.32029 6.73688 6.19526 6.86191C6.07024 6.98693 6 7.1565 6 7.33331C6 7.51012 6.07024 7.67969 6.19526 7.80472C6.32029 7.92974 6.48986 7.99998 6.66667 7.99998H10.6667C10.8435 7.99998 11.013 7.92974 11.1381 7.80472C11.2631 7.67969 11.3333 7.51012 11.3333 7.33331C11.3333 7.1565 11.2631 6.98693 11.1381 6.86191C11.013 6.73688 10.8435 6.66665 10.6667 6.66665ZM13.3333 2.66665H11.3333V1.99998C11.3333 1.82317 11.2631 1.6536 11.1381 1.52858C11.013 1.40355 10.8435 1.33331 10.6667 1.33331C10.4899 1.33331 10.3203 1.40355 10.1953 1.52858C10.0702 1.6536 10 1.82317 10 1.99998V2.66665H8.66667V1.99998C8.66667 1.82317 8.59643 1.6536 8.4714 1.52858C8.34638 1.40355 8.17681 1.33331 8 1.33331C7.82319 1.33331 7.65362 1.40355 7.5286 1.52858C7.40357 1.6536 7.33333 1.82317 7.33333 1.99998V2.66665H6V1.99998C6 1.82317 5.92976 1.6536 5.80474 1.52858C5.67971 1.40355 5.51014 1.33331 5.33333 1.33331C5.15652 1.33331 4.98695 1.40355 4.86193 1.52858C4.7369 1.6536 4.66667 1.82317 4.66667 1.99998V2.66665H2.66667C2.48986 2.66665 2.32029 2.73688 2.19526 2.86191C2.07024 2.98693 2 3.1565 2 3.33331V12.6666C2 13.1971 2.21071 13.7058 2.58579 14.0809C2.96086 14.4559 3.46957 14.6666 4 14.6666H12C12.5304 14.6666 13.0391 14.4559 13.4142 14.0809C13.7893 13.7058 14 13.1971 14 12.6666V3.33331C14 3.1565 13.9298 2.98693 13.8047 2.86191C13.6797 2.73688 13.5101 2.66665 13.3333 2.66665ZM12.6667 12.6666C12.6667 12.8435 12.5964 13.013 12.4714 13.1381C12.3464 13.2631 12.1768 13.3333 12 13.3333H4C3.82319 13.3333 3.65362 13.2631 3.5286 13.1381C3.40357 13.013 3.33333 12.8435 3.33333 12.6666V3.99998H4.66667V4.66665C4.66667 4.84346 4.7369 5.01303 4.86193 5.13805C4.98695 5.26308 5.15652 5.33331 5.33333 5.33331C5.51014 5.33331 5.67971 5.26308 5.80474 5.13805C5.92976 5.01303 6 4.84346 6 4.66665V3.99998H7.33333V4.66665C7.33333 4.84346 7.40357 5.01303 7.5286 5.13805C7.65362 5.26308 7.82319 5.33331 8 5.33331C8.17681 5.33331 8.34638 5.26308 8.4714 5.13805C8.59643 5.01303 8.66667 4.84346 8.66667 4.66665V3.99998H10V4.66665C10 4.84346 10.0702 5.01303 10.1953 5.13805C10.3203 5.26308 10.4899 5.33331 10.6667 5.33331C10.8435 5.33331 11.013 5.26308 11.1381 5.13805C11.2631 5.01303 11.3333 4.84346 11.3333 4.66665V3.99998H12.6667V12.6666Z" fill="#717171"/>
</svg>
