<svg width="16" height="16" viewBox="0 0 16 16" fill="none" xmlns="http://www.w3.org/2000/svg">
<path d="M2.01297 5.46468L1.32247 5.17191L2.01297 5.46468ZM2.01297 10.5353L1.32247 10.8281L2.01297 10.5353ZM2.81447 11.9199L2.21652 12.3726L2.81447 11.9199ZM7.20164 14.4515L7.11047 15.1959L7.20164 14.4515ZM13.1855 11.9198L12.5875 11.4671L13.1855 11.9198ZM7.20171 1.54853L7.11055 0.804088L7.20171 1.54853ZM8.79804 1.54851L8.7069 2.29295L8.79804 1.54851ZM11.8462 2.88719C11.2613 3.04767 10.658 2.69936 10.5046 2.1126L9.0534 2.49214C9.41826 3.88717 10.8526 4.71527 12.2431 4.33373L11.8462 2.88719ZM12.5876 4.53298C12.8716 4.90812 13.1105 5.3189 13.2963 5.75723L14.6773 5.17163C14.4426 4.61813 14.1413 4.10011 13.7835 3.62758L12.5876 4.53298ZM14.3509 8.7746C13.9195 8.34832 13.9195 7.65171 14.3509 7.22543L13.2966 6.15843C12.2709 7.17192 12.2709 8.82811 13.2966 9.8416L14.3509 8.7746ZM13.2963 10.2428C13.1105 10.6811 12.8716 11.0919 12.5875 11.4671L13.7835 12.3725C14.1412 11.8999 14.4426 11.3819 14.6773 10.8284L13.2963 10.2428ZM10.5046 13.8874C10.658 13.3007 11.2613 12.9524 11.8462 13.1128L12.2431 11.6663C10.8526 11.2848 9.41826 12.1129 9.0534 13.5079L10.5046 13.8874ZM8.70696 13.707C8.47556 13.7354 8.23963 13.75 7.99995 13.75V15.25C8.30071 15.25 8.59753 15.2316 8.88927 15.1959L8.70696 13.707ZM7.99995 13.75C7.76022 13.75 7.52425 13.7354 7.29281 13.707L7.11047 15.1959C7.40226 15.2316 7.69913 15.25 7.99995 15.25V13.75ZM4.15359 13.1128C4.73848 12.9524 5.34176 13.3007 5.49522 13.8874L6.94641 13.5079C6.58155 12.1129 5.14725 11.2848 3.7567 11.6663L4.15359 13.1128ZM3.41242 11.4672C3.12832 11.0919 2.88938 10.681 2.70347 10.2425L1.32247 10.8281C1.55723 11.3818 1.85866 11.8999 2.21652 12.3726L3.41242 11.4672ZM1.64891 7.22543C2.08033 7.65171 2.08033 8.34832 1.64891 8.7746L2.7032 9.8416C3.7289 8.82811 3.7289 7.17192 2.7032 6.15843L1.64891 7.22543ZM2.70346 5.75745C2.88936 5.31901 3.12829 4.90812 3.41238 4.53289L2.21646 3.62747C1.85863 4.10011 1.55722 4.61827 1.32247 5.17191L2.70346 5.75745ZM5.49522 2.1126C5.34176 2.69936 4.73848 3.04767 4.15359 2.88719L3.75669 4.33373C5.14725 4.71527 6.58155 3.88717 6.94641 2.49214L5.49522 2.1126ZM7.29287 2.29297C7.52429 2.26463 7.76025 2.25 7.99995 2.25V0.75C7.69916 0.75 7.40232 0.768359 7.11055 0.804088L7.29287 2.29297ZM7.99995 2.25C8.23961 2.25 8.47552 2.26462 8.7069 2.29295L8.88918 0.804067C8.59747 0.768351 8.30069 0.75 7.99995 0.75V2.25ZM7.99998 11.25C9.79491 11.25 11.25 9.79489 11.25 7.99997H9.74998C9.74998 8.96647 8.96648 9.74997 7.99998 9.74997V11.25ZM4.74998 7.99997C4.74998 9.79489 6.20506 11.25 7.99998 11.25V9.74997C7.03349 9.74997 6.24998 8.96647 6.24998 7.99997H4.74998ZM7.99998 4.74997C6.20506 4.74997 4.74998 6.20504 4.74998 7.99997H6.24998C6.24998 7.03347 7.03349 6.24997 7.99998 6.24997V4.74997ZM11.25 7.99997C11.25 6.20504 9.79491 4.74997 7.99998 4.74997V6.24997C8.96648 6.24997 9.74998 7.03347 9.74998 7.99997H11.25ZM3.41238 4.53289C3.48118 4.44201 3.56106 4.38156 3.6283 4.35171C3.69031 4.32418 3.72972 4.32632 3.75669 4.33373L4.15359 2.88719C3.32599 2.66011 2.60289 3.11706 2.21646 3.62747L3.41238 4.53289ZM2.7032 6.15843C2.68285 6.13833 2.66106 6.1047 2.65389 6.03664C2.64612 5.96288 2.65876 5.86288 2.70346 5.75745L1.32247 5.17191C1.07167 5.76343 1.0369 6.62071 1.64891 7.22543L2.7032 6.15843ZM2.70347 10.2425C2.65877 10.1371 2.64613 10.0371 2.6539 9.96338C2.66106 9.89533 2.68285 9.8617 2.7032 9.8416L1.64891 8.7746C1.03691 9.37932 1.07167 10.2366 1.32247 10.8281L2.70347 10.2425ZM3.7567 11.6663C3.72973 11.6737 3.69032 11.6759 3.62832 11.6483C3.56109 11.6185 3.48122 11.558 3.41242 11.4672L2.21652 12.3726C2.60294 12.883 3.32602 13.3399 4.15359 13.1128L3.7567 11.6663ZM7.29281 13.707C7.17932 13.6931 7.08658 13.6542 7.02677 13.6108C6.97162 13.5707 6.95357 13.5353 6.94641 13.5079L5.49522 13.8874C5.71294 14.7199 6.47304 15.1178 7.11047 15.1959L7.29281 13.707ZM9.0534 13.5079C9.04623 13.5353 9.02818 13.5707 8.97302 13.6108C8.91321 13.6542 8.82046 13.6931 8.70696 13.707L8.88927 15.1959C9.52671 15.1179 10.2869 14.7199 10.5046 13.8874L9.0534 13.5079ZM13.2966 9.8416C13.317 9.86172 13.3388 9.89538 13.3459 9.96347C13.3537 10.0373 13.3411 10.1373 13.2963 10.2428L14.6773 10.8284C14.9282 10.2368 14.963 9.37941 14.3509 8.7746L13.2966 9.8416ZM13.2963 5.75723C13.3411 5.8627 13.3537 5.96275 13.346 6.03655C13.3388 6.10465 13.317 6.13831 13.2966 6.15843L14.3509 7.22543C14.963 6.62062 14.9282 5.7632 14.6773 5.17163L13.2963 5.75723ZM12.5875 11.4671C12.5187 11.558 12.4388 11.6184 12.3716 11.6483C12.3095 11.6759 12.2701 11.6737 12.2431 11.6663L11.8462 13.1128C12.6739 13.3399 13.397 12.8829 13.7835 12.3725L12.5875 11.4671ZM12.2431 4.33373C12.2701 4.32632 12.3096 4.32417 12.3716 4.35172C12.4389 4.38159 12.5188 4.44207 12.5876 4.53298L13.7835 3.62758C13.3971 3.11712 12.6739 2.66009 11.8462 2.88719L12.2431 4.33373ZM6.94641 2.49214C6.95358 2.46474 6.97163 2.42929 7.02679 2.38923C7.08661 2.3458 7.17936 2.30687 7.29287 2.29297L7.11055 0.804088C6.4731 0.882148 5.71295 1.28012 5.49522 2.1126L6.94641 2.49214ZM10.5046 2.1126C10.2868 1.28009 9.52666 0.882114 8.88918 0.804067L8.7069 2.29295C8.82041 2.30685 8.91318 2.34578 8.973 2.38922C9.02817 2.42928 9.04623 2.46473 9.0534 2.49214L10.5046 2.1126Z" fill="#717171"/>
</svg>
