<svg width="21" height="20" viewBox="0 0 21 20" fill="none" xmlns="http://www.w3.org/2000/svg">
<path d="M9.66659 1.66667C8.01841 1.66667 6.40725 2.15541 5.03684 3.07109C3.66643 3.98677 2.59832 5.28826 1.96759 6.81098C1.33686 8.33369 1.17183 10.0092 1.49338 11.6258C1.81492 13.2423 2.60859 14.7271 3.77403 15.8926C4.93947 17.058 6.42433 17.8517 8.04084 18.1732C9.65734 18.4948 11.3329 18.3297 12.8556 17.699C14.3783 17.0683 15.6798 16.0002 16.5955 14.6298C17.5112 13.2593 17.9999 11.6482 17.9999 10C17.9999 8.90566 17.7844 7.82202 17.3656 6.81098C16.9468 5.79993 16.333 4.88127 15.5591 4.10745C14.7853 3.33363 13.8667 2.7198 12.8556 2.30101C11.8446 1.88222 10.7609 1.66667 9.66659 1.66667ZM9.66659 16.6667C8.34805 16.6667 7.05911 16.2757 5.96279 15.5431C4.86646 14.8106 4.01198 13.7694 3.50739 12.5512C3.00281 11.3331 2.87079 9.99261 3.12802 8.6994C3.38526 7.4062 4.02019 6.21831 4.95254 5.28596C5.88489 4.35361 7.07278 3.71867 8.36599 3.46144C9.65919 3.2042 10.9996 3.33622 12.2178 3.84081C13.436 4.34539 14.4772 5.19988 15.2097 6.2962C15.9423 7.39253 16.3333 8.68146 16.3333 10C16.3333 11.7681 15.6309 13.4638 14.3806 14.7141C13.1304 15.9643 11.4347 16.6667 9.66659 16.6667ZM9.66659 5.00001C9.44558 5.00001 9.23361 5.0878 9.07733 5.24408C8.92105 5.40036 8.83326 5.61232 8.83326 5.83334V9.16667H7.16659C6.94557 9.16667 6.73361 9.25447 6.57733 9.41075C6.42105 9.56703 6.33326 9.77899 6.33326 10C6.33326 10.221 6.42105 10.433 6.57733 10.5893C6.73361 10.7455 6.94557 10.8333 7.16659 10.8333H9.66659C9.8876 10.8333 10.0996 10.7455 10.2558 10.5893C10.4121 10.433 10.4999 10.221 10.4999 10V5.83334C10.4999 5.61232 10.4121 5.40036 10.2558 5.24408C10.0996 5.0878 9.8876 5.00001 9.66659 5.00001Z" fill="#969696"/>
</svg>
