<svg width="24" height="24" viewBox="0 0 24 24" fill="none" xmlns="http://www.w3.org/2000/svg">
<path fill-rule="evenodd" clip-rule="evenodd" d="M19 10.1714C19 10.4634 18.873 10.7534 18.627 10.9514L12.627 15.7794C12.256 16.0774 11.726 16.0734 11.36 15.7684L5.36001 10.7684C4.93601 10.4154 4.87901 9.7844 5.23201 9.3594C5.58501 8.9354 6.21601 8.8784 6.64001 9.2324L12.011 13.7074L17.373 9.3924C17.803 9.0464 18.433 9.1144 18.779 9.5454C18.928 9.7294 19 9.9514 19 10.1714Z" fill="#231F20"/>
<mask id="mask0" mask-type="alpha" maskUnits="userSpaceOnUse" x="5" y="9" width="14" height="7">
<path fill-rule="evenodd" clip-rule="evenodd" d="M19 10.1714C19 10.4634 18.873 10.7534 18.627 10.9514L12.627 15.7794C12.256 16.0774 11.726 16.0734 11.36 15.7684L5.36001 10.7684C4.93601 10.4154 4.87901 9.7844 5.23201 9.3594C5.58501 8.9354 6.21601 8.8784 6.64001 9.2324L12.011 13.7074L17.373 9.3924C17.803 9.0464 18.433 9.1144 18.779 9.5454C18.928 9.7294 19 9.9514 19 10.1714Z" fill="white"/>
</mask>
<g mask="url(#mask0)">
<rect y="24" width="24" height="24" transform="rotate(-90 0 24)" fill="#0D1C2E"/>
</g>
</svg>
