<svg width="17" height="16" viewBox="0 0 17 16" fill="none" xmlns="http://www.w3.org/2000/svg">
<path fill-rule="evenodd" clip-rule="evenodd" d="M8.25001 11.1C6.60326 11.1 4.8245 10.155 3.32741 8C4.8245 5.84496 6.60326 4.9 8.25001 4.9C9.89675 4.9 11.6755 5.84495 13.1726 8C11.6755 10.155 9.89675 11.1 8.25001 11.1ZM15.0132 7.523C13.2381 4.68288 10.8198 3.1 8.25001 3.1C5.68024 3.1 3.26188 4.68288 1.48681 7.523C1.30441 7.81484 1.30441 8.18515 1.48681 8.477C3.26188 11.3171 5.68024 12.9 8.25001 12.9C10.8198 12.9 13.2381 11.3171 15.0132 8.477C15.1956 8.18515 15.1956 7.81484 15.0132 7.523ZM8.24999 10.6667C9.72275 10.6667 10.9167 9.47276 10.9167 8C10.9167 6.52724 9.72275 5.33333 8.24999 5.33333C6.77723 5.33333 5.58332 6.52724 5.58332 8C5.58332 9.47276 6.77723 10.6667 8.24999 10.6667Z" fill="#1553A0"/>
</svg>
