<svg width="21" height="20" viewBox="0 0 21 20" fill="none" xmlns="http://www.w3.org/2000/svg">
<path d="M10.5 15.8333C10.6648 15.8333 10.826 15.7845 10.963 15.6929C11.1 15.6013 11.2068 15.4712 11.2699 15.3189C11.333 15.1666 11.3495 14.9991 11.3173 14.8374C11.2852 14.6758 11.2058 14.5273 11.0893 14.4107C10.9727 14.2942 10.8242 14.2148 10.6626 14.1827C10.5009 14.1505 10.3334 14.167 10.1811 14.2301C10.0288 14.2932 9.8987 14.4 9.80713 14.537C9.71556 14.6741 9.66669 14.8352 9.66669 15C9.66669 15.221 9.75449 15.433 9.91077 15.5892C10.067 15.7455 10.279 15.8333 10.5 15.8333ZM14.6667 15.8333C14.8315 15.8333 14.9926 15.7845 15.1297 15.6929C15.2667 15.6013 15.3735 15.4712 15.4366 15.3189C15.4997 15.1666 15.5162 14.9991 15.484 14.8374C15.4519 14.6758 15.3725 14.5273 15.2559 14.4107C15.1394 14.2942 14.9909 14.2148 14.8293 14.1827C14.6676 14.1505 14.5001 14.167 14.3478 14.2301C14.1955 14.2932 14.0654 14.4 13.9738 14.537C13.8822 14.6741 13.8334 14.8352 13.8334 15C13.8334 15.221 13.9212 15.433 14.0774 15.5892C14.2337 15.7455 14.4457 15.8333 14.6667 15.8333ZM14.6667 12.5C14.8315 12.5 14.9926 12.4511 15.1297 12.3596C15.2667 12.268 15.3735 12.1378 15.4366 11.9856C15.4997 11.8333 15.5162 11.6657 15.484 11.5041C15.4519 11.3424 15.3725 11.1939 15.2559 11.0774C15.1394 10.9609 14.9909 10.8815 14.8293 10.8493C14.6676 10.8172 14.5001 10.8337 14.3478 10.8968C14.1955 10.9598 14.0654 11.0666 13.9738 11.2037C13.8822 11.3407 13.8334 11.5018 13.8334 11.6667C13.8334 11.8877 13.9212 12.0996 14.0774 12.2559C14.2337 12.4122 14.4457 12.5 14.6667 12.5ZM10.5 12.5C10.6648 12.5 10.826 12.4511 10.963 12.3596C11.1 12.268 11.2068 12.1378 11.2699 11.9856C11.333 11.8333 11.3495 11.6657 11.3173 11.5041C11.2852 11.3424 11.2058 11.1939 11.0893 11.0774C10.9727 10.9609 10.8242 10.8815 10.6626 10.8493C10.5009 10.8172 10.3334 10.8337 10.1811 10.8968C10.0288 10.9598 9.8987 11.0666 9.80713 11.2037C9.71556 11.3407 9.66669 11.5018 9.66669 11.6667C9.66669 11.8877 9.75449 12.0996 9.91077 12.2559C10.067 12.4122 10.279 12.5 10.5 12.5ZM16.3334 2.49999H15.5V1.66666C15.5 1.44565 15.4122 1.23369 15.2559 1.07741C15.0997 0.921126 14.8877 0.833328 14.6667 0.833328C14.4457 0.833328 14.2337 0.921126 14.0774 1.07741C13.9212 1.23369 13.8334 1.44565 13.8334 1.66666V2.49999H7.16669V1.66666C7.16669 1.44565 7.07889 1.23369 6.92261 1.07741C6.76633 0.921126 6.55437 0.833328 6.33335 0.833328C6.11234 0.833328 5.90038 0.921126 5.7441 1.07741C5.58782 1.23369 5.50002 1.44565 5.50002 1.66666V2.49999H4.66669C4.00365 2.49999 3.36776 2.76339 2.89892 3.23223C2.43008 3.70107 2.16669 4.33695 2.16669 4.99999V16.6667C2.16669 17.3297 2.43008 17.9656 2.89892 18.4344C3.36776 18.9033 4.00365 19.1667 4.66669 19.1667H16.3334C16.9964 19.1667 17.6323 18.9033 18.1011 18.4344C18.57 17.9656 18.8334 17.3297 18.8334 16.6667V4.99999C18.8334 4.33695 18.57 3.70107 18.1011 3.23223C17.6323 2.76339 16.9964 2.49999 16.3334 2.49999ZM17.1667 16.6667C17.1667 16.8877 17.0789 17.0996 16.9226 17.2559C16.7663 17.4122 16.5544 17.5 16.3334 17.5H4.66669C4.44567 17.5 4.23371 17.4122 4.07743 17.2559C3.92115 17.0996 3.83335 16.8877 3.83335 16.6667V9.16666H17.1667V16.6667ZM17.1667 7.49999H3.83335V4.99999C3.83335 4.77898 3.92115 4.56702 4.07743 4.41074C4.23371 4.25446 4.44567 4.16666 4.66669 4.16666H5.50002V4.99999C5.50002 5.22101 5.58782 5.43297 5.7441 5.58925C5.90038 5.74553 6.11234 5.83333 6.33335 5.83333C6.55437 5.83333 6.76633 5.74553 6.92261 5.58925C7.07889 5.43297 7.16669 5.22101 7.16669 4.99999V4.16666H13.8334V4.99999C13.8334 5.22101 13.9212 5.43297 14.0774 5.58925C14.2337 5.74553 14.4457 5.83333 14.6667 5.83333C14.8877 5.83333 15.0997 5.74553 15.2559 5.58925C15.4122 5.43297 15.5 5.22101 15.5 4.99999V4.16666H16.3334C16.5544 4.16666 16.7663 4.25446 16.9226 4.41074C17.0789 4.56702 17.1667 4.77898 17.1667 4.99999V7.49999ZM6.33335 12.5C6.49817 12.5 6.65929 12.4511 6.79633 12.3596C6.93337 12.268 7.04018 12.1378 7.10325 11.9856C7.16633 11.8333 7.18283 11.6657 7.15067 11.5041C7.11852 11.3424 7.03915 11.1939 6.92261 11.0774C6.80607 10.9609 6.65758 10.8815 6.49593 10.8493C6.33428 10.8172 6.16672 10.8337 6.01445 10.8968C5.86218 10.9598 5.73203 11.0666 5.64046 11.2037C5.54889 11.3407 5.50002 11.5018 5.50002 11.6667C5.50002 11.8877 5.58782 12.0996 5.7441 12.2559C5.90038 12.4122 6.11234 12.5 6.33335 12.5ZM6.33335 15.8333C6.49817 15.8333 6.65929 15.7845 6.79633 15.6929C6.93337 15.6013 7.04018 15.4712 7.10325 15.3189C7.16633 15.1666 7.18283 14.9991 7.15067 14.8374C7.11852 14.6758 7.03915 14.5273 6.92261 14.4107C6.80607 14.2942 6.65758 14.2148 6.49593 14.1827C6.33428 14.1505 6.16672 14.167 6.01445 14.2301C5.86218 14.2932 5.73203 14.4 5.64046 14.537C5.54889 14.6741 5.50002 14.8352 5.50002 15C5.50002 15.221 5.58782 15.433 5.7441 15.5892C5.90038 15.7455 6.11234 15.8333 6.33335 15.8333Z" fill="#969696"/>
</svg>
