<svg width="17" height="16" viewBox="0 0 17 16" fill="none" xmlns="http://www.w3.org/2000/svg">
<path d="M9.19002 8.00001L12.0567 5.14001C12.1822 5.01448 12.2527 4.84421 12.2527 4.66668C12.2527 4.48914 12.1822 4.31888 12.0567 4.19335C11.9311 4.06781 11.7609 3.99728 11.5834 3.99728C11.4058 3.99728 11.2356 4.06781 11.11 4.19335L8.25002 7.06001L5.39002 4.19335C5.26448 4.06781 5.09422 3.99728 4.91669 3.99728C4.73915 3.99728 4.56889 4.06781 4.44335 4.19335C4.31782 4.31888 4.24729 4.48914 4.24729 4.66668C4.24729 4.84421 4.31782 5.01448 4.44335 5.14001L7.31002 8.00001L4.44335 10.86C4.38087 10.922 4.33127 10.9957 4.29743 11.077C4.26358 11.1582 4.24615 11.2453 4.24615 11.3333C4.24615 11.4214 4.26358 11.5085 4.29743 11.5897C4.33127 11.671 4.38087 11.7447 4.44335 11.8067C4.50533 11.8692 4.57906 11.9188 4.6603 11.9526C4.74154 11.9865 4.82868 12.0039 4.91669 12.0039C5.00469 12.0039 5.09183 11.9865 5.17307 11.9526C5.25431 11.9188 5.32805 11.8692 5.39002 11.8067L8.25002 8.94001L11.11 11.8067C11.172 11.8692 11.2457 11.9188 11.327 11.9526C11.4082 11.9865 11.4953 12.0039 11.5834 12.0039C11.6714 12.0039 11.7585 11.9865 11.8397 11.9526C11.921 11.9188 11.9947 11.8692 12.0567 11.8067C12.1192 11.7447 12.1688 11.671 12.2026 11.5897C12.2365 11.5085 12.2539 11.4214 12.2539 11.3333C12.2539 11.2453 12.2365 11.1582 12.2026 11.077C12.1688 10.9957 12.1192 10.922 12.0567 10.86L9.19002 8.00001Z" fill="#EF466F"/>
</svg>
