<svg width="21" height="20" viewBox="0 0 21 20" fill="none" xmlns="http://www.w3.org/2000/svg">
<path d="M9.66665 1.66666C8.01847 1.66666 6.40731 2.15541 5.0369 3.07108C3.66649 3.98676 2.59838 5.28825 1.96765 6.81097C1.33692 8.33369 1.1719 10.0092 1.49344 11.6258C1.81498 13.2423 2.60866 14.7271 3.77409 15.8926C4.93953 17.058 6.42439 17.8517 8.0409 18.1732C9.65741 18.4948 11.333 18.3297 12.8557 17.699C14.3784 17.0683 15.6799 16.0002 16.5956 14.6297C17.5112 13.2593 18 11.6482 18 10C18 8.90565 17.7844 7.82202 17.3656 6.81097C16.9469 5.79992 16.333 4.88126 15.5592 4.10744C14.7854 3.33362 13.8667 2.71979 12.8557 2.301C11.8446 1.88221 10.761 1.66666 9.66665 1.66666V1.66666ZM9.66665 16.6667C8.34811 16.6667 7.05918 16.2757 5.96285 15.5431C4.86652 14.8106 4.01204 13.7694 3.50745 12.5512C3.00287 11.333 2.87085 9.9926 3.12808 8.6994C3.38532 7.40619 4.02025 6.2183 4.9526 5.28595C5.88495 4.3536 7.07284 3.71866 8.36605 3.46143C9.65925 3.20419 10.9997 3.33622 12.2179 3.8408C13.436 4.34539 14.4772 5.19987 15.2098 6.2962C15.9423 7.39252 16.3333 8.68146 16.3333 10C16.3333 11.7681 15.6309 13.4638 14.3807 14.714C13.1305 15.9643 11.4348 16.6667 9.66665 16.6667V16.6667ZM9.66665 5C9.44564 5 9.23367 5.0878 9.07739 5.24408C8.92111 5.40036 8.83332 5.61232 8.83332 5.83333V9.16666H7.16665C6.94564 9.16666 6.73367 9.25446 6.57739 9.41074C6.42111 9.56702 6.33332 9.77898 6.33332 10C6.33332 10.221 6.42111 10.433 6.57739 10.5893C6.73367 10.7455 6.94564 10.8333 7.16665 10.8333H9.66665C9.88766 10.8333 10.0996 10.7455 10.2559 10.5893C10.4122 10.433 10.5 10.221 10.5 10V5.83333C10.5 5.61232 10.4122 5.40036 10.2559 5.24408C10.0996 5.0878 9.88766 5 9.66665 5Z" fill="#EEA805"/>
</svg>
